<svg width="19" height="33" viewBox="0 0 19 33" fill="none" xmlns="http://www.w3.org/2000/svg">
<g id="car_top" filter="url(#filter0_d_3861_34656)">
<path id="color" d="M15.4114 5.83362L15.3663 4.81406C15.3246 3.89538 15.057 2.99929 14.5617 2.23187C13.6527 0.831111 12.2992 0.250347 10.2926 0.13573L8.70402 0.108001C6.69986 0.152609 5.32175 0.685694 4.36959 2.05397C3.8478 2.80363 3.54913 3.68984 3.47544 4.60651L3.39475 5.62387C3.34132 6.28089 3.34023 6.94414 3.39691 7.60308L3.41005 7.75188L3.12089 24.3178C3.14598 25.2839 3.3102 25.7909 3.60039 26.5918C4.13842 27.9171 5.2973 28.5264 8.44798 28.5973L9.56471 28.6168C12.716 28.6558 13.8955 28.0821 14.4793 26.7817C14.7973 25.9914 14.9739 25.4904 15.0379 24.5258L15.327 7.9652L15.3453 7.81695C15.4145 7.1602 15.4365 6.49732 15.4114 5.83362ZM14.1815 8.69336L13.4212 12.2882C13.3698 12.5314 13.3236 12.7747 13.2826 13.0181C10.2062 12.2958 8.34621 12.1943 5.20859 12.8771C5.17615 12.6325 5.13847 12.3877 5.09554 12.1429L4.4612 8.52369C4.32277 7.74128 4.75056 6.96875 5.48441 6.68973C6.45586 6.31934 7.57555 6.16909 9.07051 6.15273L9.64723 6.1628C11.1407 6.23132 12.2596 6.42595 13.2123 6.82992C13.9465 7.12927 14.3471 7.91626 14.1815 8.69336Z" fill="black"/>
<g id="Text input">
<path id="Vector" d="M6.60159 0.85635L6.00444 6.52345L6.06736 6.52455L6.86318 0.892753C6.74259 0.890648 6.65337 0.894397 6.60159 0.85635Z" fill="#E7E7E7"/>
<path id="Vector_2" d="M12.3633 0.956633L12.7623 6.64112L12.6994 6.64002L12.1059 0.983975C12.2212 0.985989 12.3103 0.992849 12.3633 0.956633Z" fill="#E7E7E7"/>
</g>
<g id="Slider">
<path id="Vector_3" d="M13.5749 23.5292C13.5638 24.1657 13.4866 24.6791 13.3221 25.0901C13.3124 25.0475 13.2921 25.0047 13.2667 24.9618C13.2064 25.1093 13.1411 25.2461 13.0758 25.3776C12.8588 25.793 12.4812 26.0942 12.0382 26.235C11.3422 26.451 10.6906 26.5245 9.79293 26.5726C9.56721 26.5845 9.34692 26.586 9.12147 26.5821L8.97467 26.5795C8.75447 26.5756 8.53437 26.5665 8.31969 26.5468C7.41903 26.4674 6.77039 26.3712 6.07707 26.131C5.63917 25.98 5.27763 25.6607 5.06999 25.2379C5.00415 25.1041 4.94888 24.9651 4.88866 24.8102C4.86713 24.8417 4.85084 24.8732 4.83447 24.9101C4.67907 24.4988 4.61446 23.9936 4.6253 23.373C4.63002 23.1024 4.65056 22.8269 4.68159 22.5515L13.542 22.7062C13.5738 22.988 13.5796 23.2587 13.5749 23.5292Z" fill="#4B545A"/>
<g id="Vector_4">
<path d="M13.5749 23.5292C13.5638 24.1657 13.4866 24.6791 13.3221 25.0901C13.3124 25.0475 13.2921 25.0047 13.2667 24.9618C13.2064 25.1093 13.1411 25.2461 13.0758 25.3776C12.8588 25.793 12.4812 26.0942 12.0382 26.235C11.3422 26.451 10.6906 26.5245 9.79293 26.5726C9.56721 26.5845 9.34692 26.586 9.12147 26.5821L8.97467 26.5795C8.75447 26.5756 8.53437 26.5665 8.31969 26.5468C7.41903 26.4674 6.77039 26.3712 6.07707 26.131C5.63917 25.98 5.27763 25.6607 5.06999 25.2379C5.00415 25.1041 4.94888 24.9651 4.88866 24.8102C4.86713 24.8417 4.85084 24.8732 4.83447 24.9101C4.67907 24.4988 4.61446 23.9936 4.6253 23.373C4.63002 23.1024 4.65056 22.8269 4.68159 22.5515L13.542 22.7062C13.5738 22.988 13.5796 23.2587 13.5749 23.5292Z" fill="#4388FC" fill-opacity="0.1"/>
<path d="M13.5749 23.5292C13.5638 24.1657 13.4866 24.6791 13.3221 25.0901C13.3124 25.0475 13.2921 25.0047 13.2667 24.9618C13.2064 25.1093 13.1411 25.2461 13.0758 25.3776C12.8588 25.793 12.4812 26.0942 12.0382 26.235C11.3422 26.451 10.6906 26.5245 9.79293 26.5726C9.56721 26.5845 9.34692 26.586 9.12147 26.5821L8.97467 26.5795C8.75447 26.5756 8.53437 26.5665 8.31969 26.5468C7.41903 26.4674 6.77039 26.3712 6.07707 26.131C5.63917 25.98 5.27763 25.6607 5.06999 25.2379C5.00415 25.1041 4.94888 24.9651 4.88866 24.8102C4.86713 24.8417 4.85084 24.8732 4.83447 24.9101C4.67907 24.4988 4.61446 23.9936 4.6253 23.373C4.63002 23.1024 4.65056 22.8269 4.68159 22.5515L13.542 22.7062C13.5738 22.988 13.5796 23.2587 13.5749 23.5292Z" fill="url(#paint0_radial_3861_34656)" fill-opacity="0.77"/>
</g>
</g>
<g id="Slider_2">
<path id="Vector_5" d="M4.86256 21.1698C4.84356 21.6576 4.82428 22.1614 4.80407 22.7182C4.80333 22.7606 4.7921 22.8029 4.77048 22.8396C4.67839 23.0078 4.55155 23.064 4.35297 23.0234C4.06618 22.9281 3.9241 22.6551 3.92195 22.1775L3.87151 8.84237C3.8717 8.83176 3.87189 8.82116 3.87207 8.81055C3.87722 8.81594 3.88228 8.82664 3.88734 8.83734L4.03419 9.13705C4.06454 9.20125 4.08955 9.27067 4.10398 9.3452L4.4939 11.6442C4.76965 13.2727 4.90709 14.7131 4.90454 16.0608C4.97863 18.1261 4.92778 19.5367 4.86256 21.1698Z" fill="#4B545A"/>
<g id="Vector_6">
<path d="M4.86256 21.1698C4.84356 21.6576 4.82428 22.1614 4.80407 22.7182C4.80333 22.7606 4.7921 22.8029 4.77048 22.8396C4.67839 23.0078 4.55155 23.064 4.35296 23.0234C4.06618 22.9282 3.9241 22.6551 3.92195 22.1775L3.87151 8.84237C3.8717 8.83176 3.87189 8.82116 3.87207 8.81055C3.87722 8.81594 3.88228 8.82664 3.88734 8.83734L4.03419 9.13705C4.06454 9.20125 4.08955 9.27067 4.10398 9.3452L4.4939 11.6442C4.76965 13.2727 4.90709 14.7131 4.90454 16.0608C4.97863 18.1261 4.92778 19.5367 4.86256 21.1698Z" fill="#4388FC" fill-opacity="0.1"/>
<path d="M4.86256 21.1698C4.84356 21.6576 4.82428 22.1614 4.80407 22.7182C4.80333 22.7606 4.7921 22.8029 4.77048 22.8396C4.67839 23.0078 4.55155 23.064 4.35296 23.0234C4.06618 22.9282 3.9241 22.6551 3.92195 22.1775L3.87151 8.84237C3.8717 8.83176 3.87189 8.82116 3.87207 8.81055C3.87722 8.81594 3.88228 8.82664 3.88734 8.83734L4.03419 9.13705C4.06454 9.20125 4.08955 9.27067 4.10398 9.3452L4.4939 11.6442C4.76965 13.2727 4.90709 14.7131 4.90454 16.0608C4.97863 18.1261 4.92778 19.5367 4.86256 21.1698Z" fill="url(#paint1_radial_3861_34656)" fill-opacity="0.77"/>
</g>
<path id="Vector_7" d="M3.90358 16.9083C4.24103 17.1052 4.49149 17.1785 4.93621 17.2393L4.91892 16.4272C4.52425 16.2028 4.23436 15.9855 3.89453 15.624L3.90358 16.9083Z" fill="#4B545A"/>
<path id="Vector_8" d="M4.29877 10.484L3.88128 10.3653L3.8764 8.84237C3.87658 8.83176 3.87677 8.82116 3.87695 8.81055C3.8821 8.81594 3.88716 8.82664 3.89222 8.83734L4.03908 9.13705C4.06942 9.20125 4.09443 9.27067 4.10887 9.3452L4.29877 10.484Z" fill="#4B545A"/>
</g>
<g id="Slider_3">
<path id="Vector_9" d="M13.3998 21.3183C13.4018 21.8065 13.4035 22.3106 13.4043 22.8678C13.4035 22.9102 13.4133 22.9528 13.4336 22.9903C13.5198 23.1616 13.6446 23.2222 13.8444 23.1885C14.1344 23.1034 14.2859 22.8354 14.3047 22.3582L14.8205 9.03296C14.8207 9.02235 14.8209 9.01175 14.8211 9.00114C14.8157 9.00635 14.8103 9.01687 14.8049 9.02738L14.6476 9.32178C14.6151 9.38489 14.5877 9.45339 14.5706 9.52737L14.0953 11.8219C13.7629 13.4398 13.5753 14.8745 13.5308 16.2214C13.3848 18.2723 13.3917 19.6839 13.3998 21.3183Z" fill="#4B545A"/>
<g id="Vector_10">
<path d="M13.3998 21.3183C13.4018 21.8065 13.4035 22.3106 13.4043 22.8678C13.4035 22.9102 13.4133 22.9528 13.4336 22.9903C13.5198 23.1616 13.6446 23.2222 13.8444 23.1885C14.1344 23.1034 14.2859 22.8354 14.3047 22.3582L14.8205 9.03296C14.8207 9.02235 14.8209 9.01175 14.8211 9.00114C14.8157 9.00635 14.8103 9.01687 14.8049 9.02738L14.6476 9.32178C14.6151 9.38489 14.5877 9.45339 14.5706 9.52738L14.0953 11.8219C13.7629 13.4398 13.5753 14.8745 13.5308 16.2214C13.3848 18.2723 13.3917 19.6839 13.3998 21.3183Z" fill="#4388FC" fill-opacity="0.1"/>
<path d="M13.3998 21.3183C13.4018 21.8065 13.4035 22.3106 13.4043 22.8678C13.4035 22.9102 13.4133 22.9528 13.4336 22.9903C13.5198 23.1616 13.6446 23.2222 13.8444 23.1885C14.1344 23.1034 14.2859 22.8354 14.3047 22.3582L14.8205 9.03296C14.8207 9.02235 14.8209 9.01175 14.8211 9.00114C14.8157 9.00635 14.8103 9.01687 14.8049 9.02738L14.6476 9.32178C14.6151 9.38489 14.5877 9.45339 14.5706 9.52738L14.0953 11.8219C13.7629 13.4398 13.5753 14.8745 13.5308 16.2214C13.3848 18.2723 13.3917 19.6839 13.3998 21.3183Z" fill="url(#paint2_radial_3861_34656)" fill-opacity="0.77"/>
</g>
<path id="Vector_11" d="M14.5069 17.0977C14.1628 17.2827 13.9099 17.3473 13.4633 17.3925L13.509 16.5815C13.9112 16.371 14.2085 16.1639 14.5608 15.8146L14.5069 17.0977Z" fill="#4B545A"/>
<path id="Vector_12" d="M14.3362 10.6646L14.7575 10.5606L14.8156 9.03872C14.8158 9.02811 14.8159 9.0175 14.8161 9.00689C14.8108 9.01211 14.8054 9.02262 14.7999 9.03314L14.6427 9.32754C14.6101 9.39064 14.5827 9.45914 14.5657 9.53313L14.3362 10.6646Z" fill="#4B545A"/>
</g>
<g id="Text input_2">
<path id="Vector_13" d="M4.03672 9.57791C4.06596 9.70576 4.05942 9.77994 4.03107 9.90148L3.59591 9.89389L3.60156 9.57031L4.03672 9.57791Z" fill="#594F4F"/>
<path id="Vector_14" d="M3.67385 9.66216L3.66083 10.1076C3.66 10.1554 3.6278 10.1973 3.58034 10.2124L2.44121 10.5745C2.40433 10.5845 2.36276 10.5625 2.35292 10.5252C2.33821 10.4666 2.32359 10.4027 2.31974 10.323C2.31542 10.2699 2.32159 10.2169 2.32233 10.1745C2.33476 10.0633 2.37855 9.95792 2.44819 9.87424C2.5124 9.80107 2.59234 9.72818 2.71395 9.67194C2.86729 9.60033 3.0725 9.56146 3.27706 9.55973C3.37153 9.55607 3.49202 9.56348 3.5863 9.57043C3.63873 9.57135 3.67469 9.61442 3.67385 9.66216Z" fill="#594F4F"/>
</g>
<g id="Text input_3">
<path id="Vector_15" d="M14.6232 9.7621C14.5896 9.88886 14.5935 9.96321 14.6176 10.0857L15.0527 10.0933L15.0584 9.76969L14.6232 9.7621Z" fill="#594F4F"/>
<path id="Vector_16" d="M14.9836 9.86428L14.9811 10.3099C14.9803 10.3577 15.011 10.4007 15.0579 10.4174L16.1837 10.8191C16.2202 10.8303 16.2625 10.8099 16.2737 10.7729C16.2904 10.7148 16.3072 10.6515 16.3139 10.572C16.32 10.519 16.3157 10.4659 16.3165 10.4235C16.3079 10.3119 16.2678 10.2051 16.2012 10.119C16.1395 10.0436 16.0622 9.968 15.9426 9.90755C15.7919 9.83063 15.5881 9.78463 15.3838 9.77575C15.2895 9.7688 15.1688 9.772 15.0743 9.77566C15.0219 9.77474 14.9846 9.81123 14.9836 9.86428Z" fill="#594F4F"/>
</g>
<g id="Text input_4">
<path id="Vector_17" d="M6.20621 1.04066C5.08802 1.70563 4.45014 2.49572 4.1081 3.76321L4.11921 3.12667C4.12579 2.75006 4.25791 2.39155 4.50408 2.10932C4.98557 1.56589 5.45324 1.21324 6.20621 1.04066Z" fill="url(#paint3_linear_3861_34656)"/>
<path id="Vector_18" d="M6.20621 1.04066C5.08802 1.70563 4.45014 2.49572 4.1081 3.76321L4.11921 3.12667C4.12579 2.75006 4.25791 2.39155 4.50408 2.10932C4.98557 1.56589 5.45324 1.21324 6.20621 1.04066Z" fill="url(#paint4_linear_3861_34656)"/>
<path id="Vector_19" d="M4.11308 3.75791L4.1241 3.12667C4.13067 2.75006 4.2628 2.39155 4.50897 2.10932C4.98521 1.5658 5.45288 1.21314 6.20585 1.04057C5.08766 1.70554 4.44987 2.49032 4.11308 3.75791Z" fill="#D5E3F0"/>
</g>
<g id="Text input_5">
<path id="Vector_20" d="M12.707 1.15527C13.8013 1.85886 14.4113 2.67073 14.7088 3.94939L14.72 3.31285C14.7265 2.93623 14.607 2.57333 14.3708 2.28268C13.9138 1.72287 13.4535 1.35402 12.707 1.15527Z" fill="url(#paint5_linear_3861_34656)"/>
<path id="Vector_21" d="M12.707 1.15527C13.8013 1.85886 14.4113 2.67073 14.7088 3.94939L14.72 3.31285C14.7265 2.93623 14.607 2.57333 14.3708 2.28268C13.9138 1.72287 13.4535 1.35402 12.707 1.15527Z" fill="url(#paint6_linear_3861_34656)"/>
<path id="Vector_22" d="M14.7088 3.94352L14.7199 3.31229C14.7264 2.93567 14.6069 2.57277 14.3707 2.28212C13.9138 1.71701 13.4535 1.34816 12.707 1.14941C13.8012 1.85831 14.4113 2.66487 14.7088 3.94352Z" fill="#D5E3F0"/>
</g>
<g id="Rating">
<path id="Vector_23" d="M5.60988 28.2723C4.48785 27.9556 3.92573 27.4099 3.59377 26.5976C3.50872 26.3626 3.43378 26.149 3.36914 25.9463L3.47344 25.9799C3.82277 26.0975 4.10135 26.3623 4.24222 26.7044C4.46852 27.2602 4.71077 27.5032 5.41732 27.8869C5.55758 27.9637 5.63354 28.1189 5.60988 28.2723Z" fill="#D8394C"/>
</g>
<g id="Rating_2">
<path id="Vector_24" d="M12.4 28.3888C13.5324 28.1114 14.1132 27.5857 14.4733 26.7854C14.5665 26.5536 14.6488 26.3428 14.7205 26.1424L14.6151 26.1724C14.2619 26.2777 13.9742 26.5326 13.8215 26.8696C13.576 27.4171 13.3254 27.6515 12.6059 28.0104C12.463 28.0822 12.3817 28.2346 12.4 28.3888Z" fill="#D8394C"/>
</g>
<path id="Vector_25" d="M9.62809 7.45715C11.1583 7.52631 12.2455 7.731 13.1462 8.11284C13.5366 8.27884 13.8351 8.60242 13.975 9.00282L13.2836 12.2593C13.2434 12.4549 13.2032 12.6559 13.1683 12.8516C11.523 12.4727 10.3197 12.3031 9.1715 12.283C8.00758 12.2627 6.80953 12.3957 5.31978 12.7146C5.29175 12.5178 5.26381 12.3156 5.22529 12.1186L4.65318 8.8401C4.80693 8.44483 5.11657 8.13187 5.51256 7.9796C6.43121 7.62951 7.51963 7.46811 9.05138 7.44709L9.62809 7.45715ZM9.6305 7.31924L9.05379 7.30917C7.55883 7.32553 6.4338 7.48099 5.46769 7.84616C5.01365 8.01865 4.67163 8.3841 4.51714 8.82181L5.099 12.143C5.14192 12.3878 5.17961 12.6325 5.21205 12.8772C6.74402 12.5431 7.96848 12.4 9.17958 12.4211C10.4536 12.4434 11.7086 12.651 13.2913 13.0182C13.3323 12.7748 13.3785 12.5316 13.4299 12.2884L14.1272 8.99486C13.9829 8.55194 13.659 8.17486 13.2113 7.98664C12.2429 7.58239 11.124 7.38776 9.6305 7.31924Z" fill="black"/>
<path id="Vector_26" d="M14.1182 8.99533L13.4209 12.2889C13.3694 12.532 13.3232 12.7753 13.2822 13.0187C10.2059 12.2964 8.34585 12.195 5.20824 12.8777C5.1758 12.6331 5.13811 12.3884 5.09518 12.1435L4.51324 8.82767C4.67297 8.39005 5.00975 8.02451 5.46378 7.85202C6.43523 7.48164 7.55492 7.33138 9.04988 7.31503L9.6266 7.3251C11.1201 7.39361 12.239 7.58825 13.1917 7.99222C13.65 8.17532 13.9738 8.5524 14.1182 8.99533Z" fill="#4B545A"/>
<g id="Vector_27">
<path d="M14.1182 8.99533L13.4209 12.2889C13.3694 12.532 13.3232 12.7753 13.2822 13.0187C10.2059 12.2964 8.34585 12.195 5.20824 12.8777C5.1758 12.6331 5.13811 12.3884 5.09518 12.1435L4.51324 8.82767C4.67297 8.39005 5.00975 8.02451 5.46378 7.85202C6.43523 7.48164 7.55492 7.33138 9.04988 7.31503L9.6266 7.3251C11.1201 7.39361 12.239 7.58825 13.1917 7.99222C13.65 8.17532 13.9738 8.5524 14.1182 8.99533Z" fill="#4388FC" fill-opacity="0.1"/>
<path d="M14.1182 8.99533L13.4209 12.2889C13.3694 12.532 13.3232 12.7753 13.2822 13.0187C10.2059 12.2964 8.34585 12.195 5.20824 12.8777C5.1758 12.6331 5.13811 12.3884 5.09518 12.1435L4.51324 8.82767C4.67297 8.39005 5.00975 8.02451 5.46378 7.85202C6.43523 7.48164 7.55492 7.33138 9.04988 7.31503L9.6266 7.3251C11.1201 7.39361 12.239 7.58825 13.1917 7.99222C13.65 8.17532 13.9738 8.5524 14.1182 8.99533Z" fill="url(#paint7_radial_3861_34656)" fill-opacity="0.77"/>
</g>
<path id="Vector_28" d="M14.1806 8.69339C14.3462 7.91628 13.9457 7.12929 13.222 6.82483C12.2641 6.42076 11.1503 6.23153 9.65693 6.1577L9.08021 6.14764C7.58526 6.16399 6.46023 6.31946 5.49412 6.68463C4.76027 6.96366 4.33247 7.73618 4.4709 8.5186L4.5233 8.82196C4.68302 8.38434 5.01981 8.01879 5.47384 7.84631C6.44529 7.47592 7.56498 7.32567 9.05994 7.30932L9.63665 7.31939C11.1301 7.3879 12.249 7.58253 13.2017 7.98651C13.6495 8.17473 13.9785 8.5519 14.1176 8.99474L14.1806 8.69339Z" fill="#4B545A"/>
<path id="Vector_29" d="M12.3192 0.866543C12.3191 0.871847 12.298 0.88209 12.2403 0.881084L6.73527 0.784993C6.6776 0.783987 6.65691 0.767707 6.65691 0.767707C6.657 0.762403 6.66804 0.730759 6.7317 0.689421L6.77944 0.658418C7.06074 0.467003 7.26771 0.327351 7.6109 0.195383C7.95261 0.148286 8.31493 0.122774 8.70318 0.113633L10.2918 0.141362C10.6795 0.164047 11.0407 0.202188 11.3805 0.261182C11.3805 0.261182 11.3805 0.261182 11.3858 0.261273C11.7241 0.405138 11.9261 0.551928 12.2006 0.753044L12.2472 0.785695C12.3094 0.829229 12.3193 0.861239 12.3192 0.866543Z" fill="#4B545A"/>
<path id="Rectangle" d="M4.81908 21.9014L13.4174 22.0515C13.4174 22.0515 13.4759 22.6767 13.1063 23.346C12.294 24.8176 5.63693 24.6218 5.05854 23.2056C4.76923 22.4972 4.81908 21.9014 4.81908 21.9014Z" fill="#F2F2F2"/>
</g>
<defs>
<filter id="filter0_d_3861_34656" x="-0.0511031" y="0" width="18.5993" height="32.8444" filterUnits="userSpaceOnUse" color-interpolation-filters="sRGB">
<feFlood flood-opacity="0" result="BackgroundImageFix"/>
<feColorMatrix in="SourceAlpha" type="matrix" values="0 0 0 0 0 0 0 0 0 0 0 0 0 0 0 0 0 0 127 0" result="hardAlpha"/>
<feOffset dy="2.05208"/>
<feGaussianBlur stdDeviation="1.02604"/>
<feColorMatrix type="matrix" values="0 0 0 0 0 0 0 0 0 0 0 0 0 0 0 0 0 0 0.3 0"/>
<feBlend mode="normal" in2="BackgroundImageFix" result="effect1_dropShadow_3861_34656"/>
<feBlend mode="normal" in="SourceGraphic" in2="effect1_dropShadow_3861_34656" result="shape"/>
</filter>
<radialGradient id="paint0_radial_3861_34656" cx="0" cy="0" r="1" gradientUnits="userSpaceOnUse" gradientTransform="translate(9.34741 22.3517) rotate(91) scale(4.53602 14.8138)">
<stop stop-color="white" stop-opacity="0.8"/>
<stop offset="1" stop-color="white" stop-opacity="0.01"/>
</radialGradient>
<radialGradient id="paint1_radial_3861_34656" cx="0" cy="0" r="1" gradientUnits="userSpaceOnUse" gradientTransform="translate(4.23236 24.1439) rotate(91.033) scale(15.5349 1.95146)">
<stop stop-color="white" stop-opacity="0.8"/>
<stop offset="1" stop-color="white" stop-opacity="0.01"/>
</radialGradient>
<radialGradient id="paint2_radial_3861_34656" cx="0" cy="0" r="1" gradientUnits="userSpaceOnUse" gradientTransform="translate(13.9426 24.3129) rotate(91.0331) scale(15.5349 1.95525)">
<stop stop-color="white" stop-opacity="0.8"/>
<stop offset="1" stop-color="white" stop-opacity="0.01"/>
</radialGradient>
<linearGradient id="paint3_linear_3861_34656" x1="4.13528" y1="2.38126" x2="6.18464" y2="2.41703" gradientUnits="userSpaceOnUse">
<stop offset="0.1548" stop-color="#A1A1A1"/>
<stop offset="0.9205" stop-color="white"/>
</linearGradient>
<linearGradient id="paint4_linear_3861_34656" x1="4.13528" y1="2.38126" x2="6.18464" y2="2.41703" gradientUnits="userSpaceOnUse">
<stop stop-color="#333333"/>
<stop offset="0.1883"/>
<stop offset="0.3849" stop-color="#333333"/>
<stop offset="0.5983"/>
<stop offset="0.8033" stop-color="#333333"/>
<stop offset="1"/>
</linearGradient>
<linearGradient id="paint5_linear_3861_34656" x1="14.7335" y1="2.56739" x2="12.6841" y2="2.53161" gradientUnits="userSpaceOnUse">
<stop offset="0.1548" stop-color="#A1A1A1"/>
<stop offset="0.9205" stop-color="white"/>
</linearGradient>
<linearGradient id="paint6_linear_3861_34656" x1="14.7335" y1="2.56739" x2="12.6841" y2="2.53161" gradientUnits="userSpaceOnUse">
<stop stop-color="#333333"/>
<stop offset="0.1883"/>
<stop offset="0.3849" stop-color="#333333"/>
<stop offset="0.5983"/>
<stop offset="0.8033" stop-color="#333333"/>
<stop offset="1"/>
</linearGradient>
<radialGradient id="paint7_radial_3861_34656" cx="0" cy="0" r="1" gradientUnits="userSpaceOnUse" gradientTransform="translate(9.30696 13.3897) rotate(91.6464) scale(6.15285 15.1442)">
<stop stop-color="white" stop-opacity="0.8"/>
<stop offset="1" stop-color="white" stop-opacity="0.01"/>
</radialGradient>
</defs>
</svg>
