<svg width="100" height="100" viewBox="0 0 52 53" fill="none" xmlns="http://www.w3.org/2000/svg">
<g filter="url(#filter0_d_3862_29867)">
<path d="M21.4429 7.41467L20.0723 6.37743C18.8363 5.44409 17.3867 4.82797 15.8592 4.64548C13.0658 4.31882 10.8582 5.44966 8.55292 7.92851L6.80963 9.95867C4.71351 12.6055 3.92365 14.9654 4.6746 17.6706C5.0859 19.153 5.91408 20.4927 7.02354 21.5734L8.25605 22.7715C9.05061 23.5469 9.90948 24.2611 10.8249 24.8958L11.0319 25.0387L32.2025 43.2178C33.4823 44.2236 34.3162 44.5555 35.6667 45.04C37.9635 45.7667 39.9989 44.9187 43.4771 40.9094L44.7026 39.4823C48.14 35.438 48.6638 33.2919 47.605 31.1372C46.9219 29.8754 46.462 29.108 45.28 27.9883L24.1162 9.81502L23.9437 9.63193C23.1664 8.83642 22.3305 8.09539 21.4429 7.41467ZM23.8293 12.083L27.6738 16.9324C27.9338 17.2605 28.1996 17.5819 28.4712 17.8966C24.2283 21.1095 22.0977 23.4124 19.6109 28.2148C19.2588 27.994 18.901 27.7798 18.5374 27.5723L13.1625 24.5052C11.9991 23.8438 11.4572 22.4588 11.884 21.2073C12.4478 19.5495 13.4564 17.9361 15.0419 15.98L15.6747 15.243C17.3687 13.38 18.8236 12.1382 20.3714 11.337C21.5486 10.7067 22.9997 11.033 23.8293 12.083Z" fill="black"/>
<path d="M5.52118 13.4885L12.2281 20.3535L12.2971 20.2731L5.84953 13.1884C5.7172 13.3425 5.62617 13.4622 5.52118 13.4885Z" fill="#E7E7E7"/>
<path d="M11.8444 6.12482L19.6444 11.7168L19.5754 11.7972L11.6032 6.48805C11.7297 6.34065 11.8343 6.23257 11.8444 6.12482Z" fill="#E7E7E7"/>
<path d="M42.4158 28.8127C43.2292 29.5112 43.812 30.163 44.1681 30.818C44.1024 30.7849 44.0252 30.7651 43.9422 30.752C44.0687 30.9887 44.1759 31.2205 44.2763 31.4464C44.5817 32.1743 44.5664 32.9876 44.2729 33.7134C43.805 34.8481 43.2 35.7721 42.2975 36.9877C42.0705 37.2932 41.8356 37.5805 41.5882 37.8686L41.4271 38.0562C41.1855 38.3376 40.937 38.6132 40.6808 38.8704C39.6099 39.953 38.788 40.6907 37.7313 41.3315C37.065 41.7371 36.2623 41.8627 35.4909 41.6776C35.2466 41.6191 35.0071 41.5415 34.7414 41.4531C34.7591 41.5148 34.7825 41.5698 34.8127 41.6307C34.1124 41.3902 33.3878 40.931 32.5947 40.2499C32.249 39.953 31.9137 39.6302 31.59 39.2941L41.3132 27.9708C41.7128 28.2324 42.07 28.5158 42.4158 28.8127Z" fill="#4B545A"/>
<path d="M42.4158 28.8127C43.2292 29.5112 43.812 30.163 44.1681 30.818C44.1024 30.7849 44.0252 30.7651 43.9422 30.752C44.0687 30.9887 44.1759 31.2205 44.2763 31.4464C44.5817 32.1743 44.5664 32.9876 44.2729 33.7134C43.805 34.8481 43.2 35.7721 42.2975 36.9877C42.0705 37.2932 41.8356 37.5805 41.5882 37.8686L41.4271 38.0562C41.1855 38.3376 40.937 38.6132 40.6808 38.8704C39.6099 39.953 38.788 40.6907 37.7313 41.3315C37.065 41.7371 36.2623 41.8627 35.4909 41.6776C35.2466 41.6191 35.0071 41.5415 34.7414 41.4531C34.7591 41.5148 34.7825 41.5698 34.8127 41.6307C34.1124 41.3902 33.3878 40.931 32.5947 40.2499C32.249 39.953 31.9137 39.6302 31.59 39.2941L41.3132 27.9708C41.7128 28.2324 42.07 28.5158 42.4158 28.8127Z" fill="#4388FC" fill-opacity="0.1"/>
<path d="M42.4158 28.8127C43.2292 29.5112 43.812 30.163 44.1681 30.818C44.1024 30.7849 44.0252 30.7651 43.9422 30.752C44.0687 30.9887 44.1759 31.2205 44.2763 31.4464C44.5817 32.1743 44.5664 32.9876 44.2729 33.7134C43.805 34.8481 43.2 35.7721 42.2975 36.9877C42.0705 37.2932 41.8356 37.5805 41.5882 37.8686L41.4271 38.0562C41.1855 38.3376 40.937 38.6132 40.6808 38.8704C39.6099 39.953 38.788 40.6907 37.7313 41.3315C37.065 41.7371 36.2623 41.8627 35.4909 41.6776C35.2466 41.6191 35.0071 41.5415 34.7414 41.4531C34.7591 41.5148 34.7825 41.5698 34.8127 41.6307C34.1124 41.3902 33.3878 40.931 32.5947 40.2499C32.249 39.953 31.9137 39.6302 31.59 39.2941L41.3132 27.9708C41.7128 28.2324 42.07 28.5158 42.4158 28.8127Z" fill="url(#paint0_radial_3862_29867)" fill-opacity="0.77"/>
<path d="M29.9924 37.5748C30.6046 38.1238 31.2371 38.6902 31.9373 39.3148C31.9916 39.3614 32.0343 39.4213 32.0587 39.4889C32.1779 39.7891 32.1143 40.0139 31.8483 40.2277C31.4166 40.4973 30.9098 40.388 30.2881 39.8775L12.942 25.6111C12.9285 25.5995 12.9149 25.5878 12.9014 25.5762C12.9139 25.5753 12.9332 25.5802 12.9525 25.5852L13.499 25.7168C13.6149 25.7465 13.7318 25.7887 13.8439 25.8501L17.2442 27.8153C19.6522 29.208 21.6677 30.5778 23.4125 32.0295C26.1704 34.1532 27.9448 35.7351 29.9924 37.5748Z" fill="#4B545A"/>
<path d="M29.9924 37.5749C30.6046 38.1238 31.2371 38.6902 31.9373 39.3148C31.9916 39.3614 32.0343 39.4213 32.0587 39.4889C32.1779 39.7891 32.1143 40.0139 31.8483 40.2277C31.4166 40.4973 30.9098 40.388 30.2882 39.8775L12.942 25.6111C12.9285 25.5995 12.9149 25.5878 12.9014 25.5762C12.9139 25.5753 12.9332 25.5802 12.9525 25.5852L13.499 25.7168C13.6149 25.7465 13.7318 25.7887 13.8439 25.8501L17.2442 27.8153C19.6522 29.208 21.6677 30.5778 23.4125 32.0295C26.1704 34.1532 27.9448 35.7351 29.9924 37.5749Z" fill="#4388FC" fill-opacity="0.1"/>
<path d="M29.9924 37.5749C30.6046 38.1238 31.2371 38.6902 31.9373 39.3148C31.9916 39.3614 32.0343 39.4213 32.0587 39.4889C32.1779 39.7891 32.1143 40.0139 31.8483 40.2277C31.4166 40.4973 30.9098 40.388 30.2882 39.8775L12.942 25.6111C12.9285 25.5995 12.9149 25.5878 12.9014 25.5762C12.9139 25.5753 12.9332 25.5802 12.9525 25.5852L13.499 25.7168C13.6149 25.7465 13.7318 25.7887 13.8439 25.8501L17.2442 27.8153C19.6522 29.208 21.6677 30.5778 23.4125 32.0295C26.1704 34.1532 27.9448 35.7351 29.9924 37.5749Z" fill="url(#paint1_radial_3862_29867)" fill-opacity="0.77"/>
<path d="M23.4358 34.2386C24.0538 34.0127 24.4181 33.7667 24.9749 33.2554L23.9032 32.405C23.188 32.6755 22.5947 32.8179 21.7607 32.8701L23.4358 34.2386Z" fill="#4B545A"/>
<path d="M15.5306 26.8209L14.928 27.2347L12.9479 25.6043C12.9343 25.5926 12.9208 25.581 12.9072 25.5693C12.9198 25.5685 12.9391 25.5734 12.9584 25.5783L13.5048 25.71C13.6207 25.7397 13.7376 25.7818 13.8498 25.8432L15.5306 26.8209Z" fill="#4B545A"/>
<path d="M39.3599 26.666C39.9951 27.1881 40.6506 27.7277 41.3739 28.3255C41.4281 28.3721 41.4939 28.4053 41.5643 28.4192C41.8791 28.4916 42.0917 28.3948 42.2629 28.0995C42.4641 27.632 42.2795 27.1475 41.6809 26.6102L24.9561 11.6202C24.9426 11.6085 24.929 11.5969 24.9154 11.5852C24.9165 11.5978 24.9243 11.6161 24.9321 11.6344L25.1449 12.1547C25.1917 12.2648 25.251 12.374 25.3287 12.4756L27.7932 15.558C29.5339 17.7278 31.1926 19.513 32.8914 21.0184C35.394 23.4118 37.2317 24.92 39.3599 26.666Z" fill="#4B545A"/>
<path d="M39.3599 26.666C39.9951 27.1881 40.6506 27.7277 41.3739 28.3255C41.4281 28.3721 41.4939 28.4053 41.5643 28.4192C41.8791 28.4916 42.0917 28.3948 42.2629 28.0995C42.4641 27.632 42.2795 27.1475 41.6809 26.6102L24.9561 11.6202C24.9426 11.6085 24.929 11.5969 24.9154 11.5852C24.9165 11.5978 24.9243 11.6161 24.9321 11.6344L25.1449 12.1547C25.1917 12.2648 25.251 12.374 25.3287 12.4756L27.7932 15.558C29.5339 17.7278 31.1926 19.513 32.8914 21.0184C35.394 23.4118 37.2318 24.92 39.3599 26.666Z" fill="#4388FC" fill-opacity="0.1"/>
<path d="M39.3599 26.666C39.9951 27.1881 40.6506 27.7277 41.3739 28.3255C41.4281 28.3721 41.4939 28.4053 41.5643 28.4192C41.8791 28.4916 42.0917 28.3948 42.2629 28.0995C42.4641 27.632 42.2795 27.1475 41.6809 26.6102L24.9561 11.6202C24.9426 11.6085 24.929 11.5969 24.9154 11.5852C24.9165 11.5978 24.9243 11.6161 24.9321 11.6344L25.1449 12.1547C25.1917 12.2648 25.251 12.374 25.3287 12.4756L27.7932 15.558C29.5339 17.7278 31.1926 19.513 32.8914 21.0184C35.394 23.4118 37.2318 24.92 39.3599 26.666Z" fill="url(#paint2_radial_3862_29867)" fill-opacity="0.77"/>
<path d="M35.0765 20.6944C34.9466 21.3394 34.7586 21.7367 34.3373 22.3644L33.3347 21.4336C33.494 20.6857 33.545 20.0777 33.4706 19.2455L35.0765 20.6944Z" fill="#4B545A"/>
<path d="M26.5505 14.0026L26.8684 13.3444L24.9573 11.6335C24.9438 11.6219 24.9302 11.6102 24.9167 11.5986C24.9177 11.6111 24.9255 11.6295 24.9333 11.6478L25.1461 12.1681C25.1929 12.2781 25.2523 12.3873 25.3299 12.4889L26.5505 14.0026Z" fill="#4B545A"/>
<path d="M14.0742 26.1861C14.2714 26.2856 14.3606 26.3738 14.4877 26.5412L14.0102 27.0973L13.5967 26.7422L14.0742 26.1861Z" fill="#594F4F"/>
<path d="M13.7926 26.7474L14.3563 27.243C14.4173 27.2954 14.437 27.3822 14.4056 27.46L13.6509 29.3263C13.6242 29.3849 13.5511 29.4152 13.4921 29.3878C13.4003 29.3439 13.3017 29.2941 13.1942 29.2135C13.1207 29.162 13.0587 29.0971 13.0044 29.0505C12.8736 28.9149 12.784 28.7449 12.7504 28.5646C12.7245 28.4027 12.7159 28.2207 12.7737 28.0026C12.8456 27.7268 13.0158 27.4189 13.2334 27.1518C13.3301 27.0254 13.4693 26.8771 13.5796 26.7623C13.6371 26.6953 13.7316 26.695 13.7926 26.7474Z" fill="#594F4F"/>
<path d="M25.6898 12.6598C25.818 12.8397 25.9186 12.9145 26.1033 13.0149L26.5808 12.4588L26.1673 12.1037L25.6898 12.6598Z" fill="#594F4F"/>
<path d="M26.2088 12.3015L26.784 12.7838C26.845 12.8362 26.9338 12.8425 27.0059 12.7997L28.7367 11.7716C28.7905 11.7363 28.8094 11.6594 28.7735 11.6053C28.7162 11.5212 28.6521 11.4312 28.5562 11.3372C28.4941 11.2723 28.4206 11.2208 28.3664 11.1742C28.2125 11.0654 28.0309 11.0025 27.8476 10.9965C27.6837 10.9954 27.5025 11.0144 27.2956 11.1045C27.0338 11.2173 26.7552 11.432 26.5241 11.6875C26.4137 11.8023 26.2882 11.9622 26.1914 12.0887C26.1338 12.1557 26.141 12.2433 26.2088 12.3015Z" fill="#594F4F"/>
<path d="M5.33455 14.1996C4.99506 16.3642 5.33402 18.0405 6.61 19.8463L5.79653 19.1477C5.31523 18.7345 4.99234 18.1778 4.89094 17.5553C4.70374 16.3469 4.74907 15.3614 5.33455 14.1996Z" fill="url(#paint3_linear_3862_29867)"/>
<path d="M5.33455 14.1996C4.99506 16.3642 5.33402 18.0405 6.61 19.8463L5.79653 19.1477C5.31523 18.7345 4.99234 18.1778 4.89094 17.5553C4.70374 16.3469 4.74907 15.3614 5.33455 14.1996Z" fill="url(#paint4_linear_3862_29867)"/>
<path d="M6.60908 19.8336L5.80239 19.1409C5.32109 18.7276 4.9982 18.171 4.8968 17.5484C4.70384 16.3467 4.74918 15.3613 5.33465 14.1994C4.99516 16.3641 5.32734 18.0346 6.60908 19.8336Z" fill="#D5E3F0"/>
<path d="M12.4697 5.8916C14.5582 5.22878 16.2665 5.31043 18.2444 6.29877L17.4309 5.60024C16.9496 5.18695 16.3505 4.95192 15.7198 4.9458C14.5027 4.93672 13.5297 5.13721 12.4697 5.8916Z" fill="url(#paint5_linear_3862_29867)"/>
<path d="M12.4697 5.8916C14.5582 5.22878 16.2665 5.31043 18.2444 6.29877L17.4309 5.60024C16.9496 5.18695 16.3505 4.95192 15.7198 4.9458C14.5027 4.93672 13.5297 5.13721 12.4697 5.8916Z" fill="url(#paint6_linear_3862_29867)"/>
<path d="M18.2375 6.29291L17.4308 5.6002C16.9495 5.18691 16.3505 4.95188 15.7198 4.94576C14.4959 4.93087 13.5229 5.13135 12.4629 5.88574C14.5581 5.22874 16.2596 5.30457 18.2375 6.29291Z" fill="#D5E3F0"/>
<path d="M40.0055 44.2398C38.3889 45.3544 37.0771 45.4967 35.667 45.0542C35.2709 44.9119 34.9134 44.7796 34.5811 44.6455L34.7368 44.5464C35.2646 44.2198 35.9075 44.1432 36.5024 44.3281C37.4663 44.632 38.0418 44.579 39.2988 44.0753C39.549 43.9759 39.8319 44.0442 40.0055 44.2398Z" fill="#D8394C"/>
<path d="M47.4547 35.5622C48.3121 33.7957 48.2545 32.4774 47.6038 31.1504C47.4034 30.7804 47.2185 30.4471 47.0357 30.1388L46.9613 30.3077C46.7182 30.8788 46.7397 31.5259 47.0124 32.086C47.4585 32.9929 47.4932 33.5698 47.1852 34.8885C47.1248 35.1509 47.2351 35.4202 47.4547 35.5622Z" fill="#D8394C"/>
<path d="M17.3332 16.6571C19.0675 14.7472 20.5014 13.5573 21.9645 12.7998C22.5994 12.4719 23.3398 12.4326 24.0093 12.6815L27.489 17.078C27.6995 17.3403 27.9169 17.6084 28.1332 17.864C25.8734 19.5903 24.3603 20.9684 23.1003 22.4357C21.8231 23.9232 20.7079 25.6196 19.5203 27.8941C19.235 27.719 18.9428 27.538 18.646 27.3762L13.7798 24.5944C13.4324 23.9703 13.3594 23.2324 13.5876 22.5553C14.1209 20.9878 15.0814 19.4029 16.7004 17.3941L17.3332 16.6571ZM17.157 16.5057L16.5241 17.2427C14.9386 19.1988 13.9311 20.8248 13.3663 22.47C13.102 23.2442 13.2083 24.0804 13.6098 24.7512L18.5418 27.5661C18.9054 27.7736 19.2633 27.9877 19.6154 28.2086C20.8287 25.863 21.9591 24.1214 23.2881 22.5737C24.6862 20.9455 26.3043 19.5412 28.4814 17.8836C28.2098 17.5689 27.944 17.2476 27.684 16.9195L24.1626 12.4756C23.4331 12.1867 22.5961 12.2014 21.8709 12.5797C20.3059 13.401 18.8509 14.6427 17.157 16.5057Z" fill="black"/>
<path d="M24.1521 12.4892L27.6734 16.9331C27.9335 17.2611 28.1993 17.5825 28.4708 17.8972C24.2279 21.1101 22.0973 23.413 19.6106 28.2155C19.2585 27.9946 18.9006 27.7804 18.537 27.573L13.6118 24.7639C13.216 24.0864 13.1039 23.2569 13.3683 22.4827C13.932 20.825 14.9406 19.2115 16.5261 17.2554L17.1589 16.5184C18.8529 14.6554 20.3078 13.4137 21.8556 12.6125C22.5856 12.215 23.4226 12.2003 24.1521 12.4892Z" fill="#4B545A"/>
<path d="M24.1521 12.4892L27.6734 16.9331C27.9335 17.2611 28.1993 17.5825 28.4708 17.8972C24.2279 21.1101 22.0973 23.413 19.6106 28.2155C19.2585 27.9946 18.9006 27.7804 18.537 27.573L13.6118 24.7639C13.216 24.0864 13.1039 23.2569 13.3683 22.4827C13.932 20.825 14.9406 19.2115 16.5261 17.2554L17.1589 16.5184C18.8529 14.6554 20.3078 13.4137 21.8556 12.6125C22.5856 12.215 23.4226 12.2003 24.1521 12.4892Z" fill="#4388FC" fill-opacity="0.1"/>
<path d="M24.1521 12.4892L27.6734 16.9331C27.9335 17.2611 28.1993 17.5825 28.4708 17.8972C24.2279 21.1101 22.0973 23.413 19.6106 28.2155C19.2585 27.9946 18.9006 27.7804 18.537 27.573L13.6118 24.7639C13.216 24.0864 13.1039 23.2569 13.3683 22.4827C13.932 20.825 14.9406 19.2115 16.5261 17.2554L17.1589 16.5184C18.8529 14.6554 20.3078 13.4137 21.8556 12.6125C22.5856 12.215 23.4226 12.2003 24.1521 12.4892Z" fill="url(#paint7_radial_3862_29867)" fill-opacity="0.77"/>
<path d="M23.8283 12.0844C22.9986 11.0344 21.5476 10.708 20.375 11.3191C18.8215 12.127 17.3791 13.3679 15.6784 15.2251L15.0455 15.9621C13.46 17.9182 12.4525 19.5441 11.8877 21.1894C11.4608 22.4409 12.0028 23.8259 13.1662 24.4873L13.6158 24.7454C13.22 24.0679 13.108 23.2383 13.3723 22.4642C13.9361 20.8064 14.9446 19.193 16.5301 17.2369L17.163 16.4999C18.8569 14.6369 20.3119 13.3952 21.8596 12.594C22.5849 12.2157 23.4276 12.1943 24.1514 12.4899L23.8283 12.0844Z" fill="#4B545A"/>
<path d="M11.678 6.08499C11.6847 6.09082 11.6753 6.12926 11.612 6.20296L5.57091 13.2381C5.50762 13.3118 5.46427 13.3212 5.46427 13.3212C5.45749 13.3154 5.42832 13.267 5.44313 13.1401L5.45424 13.0448C5.50835 12.4744 5.5497 12.0559 5.74742 11.469C6.05361 10.9753 6.40992 10.4781 6.81533 9.96478L8.55862 7.93463C9.00471 7.45628 9.44237 7.02889 9.88413 6.65159C9.88413 6.65159 9.88413 6.65159 9.88988 6.64489C10.4401 6.36073 10.8475 6.25659 11.4033 6.11686L11.4957 6.09148C11.619 6.05765 11.6712 6.07917 11.678 6.08499Z" fill="#4B545A"/>
<path d="M30.8954 38.4178L40.331 27.4295C40.331 27.4295 41.2046 28.0255 41.6754 29.2241C42.7105 31.859 35.302 40.281 32.8439 39.5089C31.6144 39.1227 30.8954 38.4178 30.8954 38.4178Z" fill="#F2F2F2"/>
</g>
<defs>
<filter id="filter0_d_3862_29867" x="-3.45613" y="0" width="58.6896" height="56.0714" filterUnits="userSpaceOnUse" color-interpolation-filters="sRGB">
<feFlood flood-opacity="0" result="BackgroundImageFix"/>
<feColorMatrix in="SourceAlpha" type="matrix" values="0 0 0 0 0 0 0 0 0 0 0 0 0 0 0 0 0 0 127 0" result="hardAlpha"/>
<feOffset dy="3.45613"/>
<feGaussianBlur stdDeviation="1.72807"/>
<feColorMatrix type="matrix" values="0 0 0 0 0 0 0 0 0 0 0 0 0 0 0 0 0 0 0.3 0"/>
<feBlend mode="normal" in2="BackgroundImageFix" result="effect1_dropShadow_3862_29867"/>
<feBlend mode="normal" in="SourceGraphic" in2="effect1_dropShadow_3862_29867" result="shape"/>
</filter>
<radialGradient id="paint0_radial_3862_29867" cx="0" cy="0" r="1" gradientUnits="userSpaceOnUse" gradientTransform="translate(36.3455 33.0291) rotate(40.6525) scale(7.63961 24.9495)">
<stop stop-color="white" stop-opacity="0.8"/>
<stop offset="1" stop-color="white" stop-opacity="0.01"/>
</radialGradient>
<radialGradient id="paint1_radial_3862_29867" cx="0" cy="0" r="1" gradientUnits="userSpaceOnUse" gradientTransform="translate(33.1717 41.5885) rotate(40.6855) scale(26.1641 3.28667)">
<stop stop-color="white" stop-opacity="0.8"/>
<stop offset="1" stop-color="white" stop-opacity="0.01"/>
</radialGradient>
<radialGradient id="paint2_radial_3862_29867" cx="0" cy="0" r="1" gradientUnits="userSpaceOnUse" gradientTransform="translate(43.8264 29.1807) rotate(40.6856) scale(26.1641 3.29305)">
<stop stop-color="white" stop-opacity="0.8"/>
<stop offset="1" stop-color="white" stop-opacity="0.01"/>
</radialGradient>
<linearGradient id="paint3_linear_3862_29867" x1="4.8472" y1="18.3258" x2="7.09612" y2="15.7068" gradientUnits="userSpaceOnUse">
<stop offset="0.1548" stop-color="#A1A1A1"/>
<stop offset="0.9205" stop-color="white"/>
</linearGradient>
<linearGradient id="paint4_linear_3862_29867" x1="4.8472" y1="18.3258" x2="7.09612" y2="15.7068" gradientUnits="userSpaceOnUse">
<stop stop-color="#333333"/>
<stop offset="0.1883"/>
<stop offset="0.3849" stop-color="#333333"/>
<stop offset="0.5983"/>
<stop offset="0.8033" stop-color="#333333"/>
<stop offset="1"/>
</linearGradient>
<linearGradient id="paint5_linear_3862_29867" x1="16.4788" y1="4.78149" x2="14.2298" y2="7.40051" gradientUnits="userSpaceOnUse">
<stop offset="0.1548" stop-color="#A1A1A1"/>
<stop offset="0.9205" stop-color="white"/>
</linearGradient>
<linearGradient id="paint6_linear_3862_29867" x1="16.4788" y1="4.78149" x2="14.2298" y2="7.40051" gradientUnits="userSpaceOnUse">
<stop stop-color="#333333"/>
<stop offset="0.1883"/>
<stop offset="0.3849" stop-color="#333333"/>
<stop offset="0.5983"/>
<stop offset="0.8033" stop-color="#333333"/>
<stop offset="1"/>
</linearGradient>
<radialGradient id="paint7_radial_3862_29867" cx="0" cy="0" r="1" gradientUnits="userSpaceOnUse" gradientTransform="translate(24.6795 23.4508) rotate(41.2989) scale(10.3627 25.5059)">
<stop stop-color="white" stop-opacity="0.8"/>
<stop offset="1" stop-color="white" stop-opacity="0.01"/>
</radialGradient>
</defs>
</svg>
