<svg width="32" height="55" viewBox="0 0 32 55" fill="none" xmlns="http://www.w3.org/2000/svg">
<g id="car_top" filter="url(#filter0_d_3862_29841)">
<path id="color" d="M25.9153 9.44453L25.8093 7.72897C25.7122 6.18317 25.2353 4.68206 24.3787 3.40432C22.8067 1.07223 20.5105 0.134028 17.128 0L14.4521 0C11.0785 0.134028 8.77351 1.07223 7.21035 3.40432C6.3537 4.68206 5.8768 6.18317 5.77966 7.72897L5.67368 9.44453C5.60303 10.5525 5.62069 11.6694 5.7355 12.7774L5.76199 13.0276L5.76199 40.9322C5.83264 42.5585 6.12408 43.4073 6.6363 44.7476C7.58127 46.9635 9.55068 47.9553 14.8584 47.9821H16.7395C22.0472 47.9553 24.0166 46.9546 24.9615 44.7476C25.4738 43.4073 25.7564 42.5585 25.8358 40.9322L25.8358 13.0365L25.8623 12.7863C25.9595 11.6783 25.9771 10.5614 25.9153 9.44453ZM23.9283 14.2964L22.7537 20.3723C22.6742 20.7833 22.6035 21.1943 22.5417 21.6054C17.34 20.4795 14.2048 20.3634 8.94131 21.6054C8.87949 21.1943 8.80884 20.7833 8.72935 20.3723L7.55477 14.2964C7.29866 12.9829 7.99634 11.6694 9.22391 11.178C10.8489 10.5257 12.73 10.2398 15.247 10.1683H16.2184C18.7354 10.2398 20.6253 10.5346 22.2414 11.1869C23.4867 11.6694 24.1844 12.9829 23.9283 14.2964Z" fill="#DD431F"/>
<g id="Text input">
<path id="Vector" d="M10.9357 1.32227L10.0967 10.8829H10.2027L11.3772 1.37588C11.1741 1.37588 11.024 1.38481 10.9357 1.32227Z" fill="#E7E7E7"/>
<path id="Vector_2" d="M20.6417 1.32227L21.4807 10.8829H21.3747L20.209 1.37588C20.4033 1.37588 20.5534 1.38481 20.6417 1.32227Z" fill="#E7E7E7"/>
</g>
<g id="Slider">
<path id="Vector_3" d="M23.3448 39.2971C23.3448 40.3693 23.23 41.236 22.965 41.933C22.9474 41.8615 22.912 41.79 22.8679 41.7185C22.7707 41.9687 22.6648 42.201 22.5588 42.4244C22.2055 43.1303 21.5785 43.6485 20.8367 43.8987C19.6709 44.2829 18.5758 44.4259 17.0656 44.5331C16.6859 44.5599 16.315 44.5688 15.9352 44.5688H15.6879C15.317 44.5688 14.9461 44.5599 14.584 44.5331C13.065 44.4259 11.9699 44.2829 10.7953 43.8987C10.0535 43.6575 9.43528 43.1303 9.07319 42.4244C8.95838 42.201 8.86124 41.9687 8.75526 41.7096C8.71993 41.7632 8.69344 41.8168 8.66695 41.8794C8.39317 41.1913 8.26953 40.3425 8.26953 39.2971C8.26953 38.8414 8.29603 38.3767 8.34018 37.9121H23.2653C23.3271 38.3857 23.3448 38.8414 23.3448 39.2971Z" fill="#4B545A"/>
<g id="Vector_4">
<path d="M23.3448 39.2971C23.3448 40.3693 23.23 41.236 22.965 41.933C22.9474 41.8615 22.912 41.79 22.8679 41.7185C22.7707 41.9687 22.6648 42.201 22.5588 42.4244C22.2055 43.1303 21.5785 43.6485 20.8367 43.8987C19.6709 44.2829 18.5758 44.4259 17.0656 44.5331C16.6859 44.5599 16.315 44.5688 15.9352 44.5688H15.6879C15.317 44.5688 14.9461 44.5599 14.584 44.5331C13.065 44.4259 11.9699 44.2829 10.7953 43.8987C10.0535 43.6575 9.43528 43.1303 9.07319 42.4244C8.95838 42.201 8.86124 41.9687 8.75526 41.7096C8.71993 41.7632 8.69344 41.8168 8.66695 41.8794C8.39317 41.1913 8.26953 40.3425 8.26953 39.2971C8.26953 38.8414 8.29603 38.3767 8.34018 37.9121H23.2653C23.3271 38.3857 23.3448 38.8414 23.3448 39.2971Z" fill="#4388FC" fill-opacity="0.1"/>
<path d="M23.3448 39.2971C23.3448 40.3693 23.23 41.236 22.965 41.933C22.9474 41.8615 22.912 41.79 22.8679 41.7185C22.7707 41.9687 22.6648 42.201 22.5588 42.4244C22.2055 43.1303 21.5785 43.6485 20.8367 43.8987C19.6709 44.2829 18.5758 44.4259 17.0656 44.5331C16.6859 44.5599 16.315 44.5688 15.9352 44.5688H15.6879C15.317 44.5688 14.9461 44.5599 14.584 44.5331C13.065 44.4259 11.9699 44.2829 10.7953 43.8987C10.0535 43.6575 9.43528 43.1303 9.07319 42.4244C8.95838 42.201 8.86124 41.9687 8.75526 41.7096C8.71993 41.7632 8.69344 41.8168 8.66695 41.8794C8.39317 41.1913 8.26953 40.3425 8.26953 39.2971C8.26953 38.8414 8.29603 38.3767 8.34018 37.9121H23.2653C23.3271 38.3857 23.3448 38.8414 23.3448 39.2971Z" fill="url(#paint0_radial_3862_29841)" fill-opacity="0.77"/>
</g>
</g>
<g id="Slider_2">
<path id="Vector_5" d="M8.60447 35.5792C8.58681 36.4013 8.56915 37.2501 8.55148 38.1883C8.55148 38.2598 8.53382 38.3313 8.49849 38.3938C8.34836 38.6797 8.13641 38.778 7.80081 38.7155C7.31508 38.5636 7.0678 38.1079 7.05014 37.3037L6.57324 14.8495C6.57324 14.8316 6.57324 14.8138 6.57324 14.7959C6.58207 14.8048 6.5909 14.8227 6.59974 14.8406L6.85585 15.3409C6.90884 15.4482 6.95299 15.5643 6.97949 15.6894L7.70367 19.5494C8.21589 22.2836 8.48966 24.7051 8.52499 26.9746C8.71045 30.4504 8.66629 32.8272 8.60447 35.5792Z" fill="#4B545A"/>
<g id="Vector_6">
<path d="M8.60447 35.5792C8.58681 36.4013 8.56915 37.2501 8.55148 38.1883C8.55148 38.2598 8.53382 38.3313 8.49849 38.3938C8.34836 38.6797 8.13641 38.778 7.80081 38.7155C7.31508 38.5636 7.0678 38.1079 7.05014 37.3037L6.57324 14.8495C6.57324 14.8316 6.57324 14.8138 6.57324 14.7959C6.58207 14.8048 6.5909 14.8227 6.59974 14.8406L6.85585 15.3409C6.90884 15.4482 6.95299 15.5643 6.97949 15.6894L7.70367 19.5494C8.21589 22.2836 8.48966 24.7051 8.52499 26.9746C8.71045 30.4504 8.66629 32.8272 8.60447 35.5792Z" fill="#4388FC" fill-opacity="0.1"/>
<path d="M8.60447 35.5792C8.58681 36.4013 8.56915 37.2501 8.55148 38.1883C8.55148 38.2598 8.53382 38.3313 8.49849 38.3938C8.34836 38.6797 8.13641 38.778 7.80081 38.7155C7.31508 38.5636 7.0678 38.1079 7.05014 37.3037L6.57324 14.8495C6.57324 14.8316 6.57324 14.8138 6.57324 14.7959C6.58207 14.8048 6.5909 14.8227 6.59974 14.8406L6.85585 15.3409C6.90884 15.4482 6.95299 15.5643 6.97949 15.6894L7.70367 19.5494C8.21589 22.2836 8.48966 24.7051 8.52499 26.9746C8.71045 30.4504 8.66629 32.8272 8.60447 35.5792Z" fill="url(#paint1_radial_3862_29841)" fill-opacity="0.77"/>
</g>
<path id="Vector_7" d="M6.86451 28.4309C7.43856 28.7525 7.86246 28.8687 8.61314 28.9581L8.56015 27.591C7.88896 27.2246 7.3944 26.8672 6.81152 26.2686L6.86451 28.4309Z" fill="#4B545A"/>
<path id="Vector_8" d="M7.34153 17.6016L6.63502 17.4139L6.58203 14.8495C6.58203 14.8316 6.58203 14.8138 6.58203 14.7959C6.59086 14.8048 6.59969 14.8227 6.60853 14.8406L6.86464 15.3409C6.91763 15.4482 6.96178 15.5643 6.98828 15.6894L7.34153 17.6016Z" fill="#4B545A"/>
</g>
<g id="Slider_3">
<path id="Vector_9" d="M22.9823 35.5792C23 36.4013 23.0177 37.2501 23.0353 38.1883C23.0353 38.2598 23.053 38.3313 23.0883 38.3938C23.2384 38.6797 23.4504 38.778 23.786 38.7155C24.2717 38.5636 24.519 38.1079 24.5367 37.3037L25.0136 14.8495C25.0136 14.8316 25.0136 14.8138 25.0136 14.7959C25.0047 14.8048 24.9959 14.8227 24.9871 14.8406L24.7309 15.3409C24.678 15.4482 24.6338 15.5643 24.6073 15.6894L23.8743 19.5673C23.3621 22.3015 23.0883 24.7229 23.053 26.9925C22.8675 30.4504 22.9205 32.8272 22.9823 35.5792Z" fill="#4B545A"/>
<g id="Vector_10">
<path d="M22.9823 35.5792C23 36.4013 23.0177 37.2501 23.0353 38.1883C23.0353 38.2598 23.053 38.3313 23.0883 38.3938C23.2384 38.6797 23.4504 38.778 23.786 38.7155C24.2717 38.5636 24.519 38.1079 24.5367 37.3037L25.0136 14.8495C25.0136 14.8316 25.0136 14.8138 25.0136 14.7959C25.0047 14.8048 24.9959 14.8227 24.9871 14.8406L24.7309 15.3409C24.678 15.4482 24.6338 15.5643 24.6073 15.6894L23.8743 19.5673C23.3621 22.3015 23.0883 24.7229 23.053 26.9925C22.8675 30.4504 22.9205 32.8272 22.9823 35.5792Z" fill="#4388FC" fill-opacity="0.1"/>
<path d="M22.9823 35.5792C23 36.4013 23.0177 37.2501 23.0353 38.1883C23.0353 38.2598 23.053 38.3313 23.0883 38.3938C23.2384 38.6797 23.4504 38.778 23.786 38.7155C24.2717 38.5636 24.519 38.1079 24.5367 37.3037L25.0136 14.8495C25.0136 14.8316 25.0136 14.8138 25.0136 14.7959C25.0047 14.8048 24.9959 14.8227 24.9871 14.8406L24.7309 15.3409C24.678 15.4482 24.6338 15.5643 24.6073 15.6894L23.8743 19.5673C23.3621 22.3015 23.0883 24.7229 23.053 26.9925C22.8675 30.4504 22.9205 32.8272 22.9823 35.5792Z" fill="url(#paint2_radial_3862_29841)" fill-opacity="0.77"/>
</g>
<path id="Vector_11" d="M24.7223 28.4397C24.1482 28.7613 23.7243 28.8775 22.9736 28.9668L23.0266 27.5998C23.6978 27.2334 24.1924 26.876 24.7752 26.2773L24.7223 28.4397Z" fill="#4B545A"/>
<path id="Vector_12" d="M24.2441 17.6113L24.9507 17.4237L25.0036 14.8593C25.0036 14.8414 25.0036 14.8235 25.0036 14.8057C24.9948 14.8146 24.986 14.8325 24.9771 14.8503L24.721 15.3507C24.668 15.4579 24.6239 15.5741 24.5974 15.6992L24.2441 17.6113Z" fill="#4B545A"/>
</g>
<g id="Text input_2">
<path id="Vector_13" d="M6.87461 16.084C6.9276 16.2984 6.91877 16.4235 6.87461 16.629H6.1416V16.084H6.87461Z" fill="#594F4F"/>
<path id="Vector_14" d="M6.26477 16.2358L6.25594 16.9864C6.25594 17.0668 6.20295 17.1383 6.12347 17.1651L4.21588 17.8084C4.15406 17.8263 4.08341 17.7906 4.06575 17.728C4.03925 17.6297 4.01276 17.5225 4.00393 17.3885C3.99509 17.2991 4.00393 17.2098 4.00393 17.1383C4.02159 16.9506 4.09224 16.7719 4.20705 16.629C4.31303 16.5039 4.4455 16.3788 4.64862 16.2805C4.90473 16.1554 5.24916 16.0839 5.59358 16.075C5.75255 16.0661 5.95567 16.075 6.11464 16.0839C6.20295 16.0839 6.26477 16.1554 6.26477 16.2358Z" fill="#594F4F"/>
</g>
<g id="Text input_3">
<path id="Vector_15" d="M24.7035 16.084C24.6505 16.2984 24.6593 16.4235 24.7035 16.629H25.4365V16.084H24.7035Z" fill="#594F4F"/>
<path id="Vector_16" d="M25.3135 16.2446L25.3223 16.9952C25.3223 17.0756 25.3753 17.1471 25.4548 17.1739L27.3624 17.8172C27.4242 17.8351 27.4948 17.7993 27.5125 17.7368C27.539 17.6385 27.5655 17.5313 27.5743 17.3973C27.5832 17.3079 27.5743 17.2186 27.5743 17.1471C27.5567 16.9594 27.486 16.7807 27.3712 16.6378C27.2652 16.5127 27.1327 16.3876 26.9296 16.2893C26.6735 16.1642 26.3291 16.0927 25.9847 16.0838C25.8257 16.0748 25.6226 16.0838 25.4636 16.0927C25.3753 16.0927 25.3135 16.1553 25.3135 16.2446Z" fill="#594F4F"/>
</g>
<g id="Text input_4">
<path id="Vector_17" d="M10.2744 1.64355C8.41095 2.7962 7.36001 4.14542 6.82129 6.28987V5.21764C6.82129 4.58324 7.03324 3.97565 7.43949 3.49315C8.23432 2.56388 9.01148 1.95629 10.2744 1.64355Z" fill="url(#paint3_linear_3862_29841)"/>
<path id="Vector_18" d="M10.2744 1.64355C8.41095 2.7962 7.36001 4.14542 6.82129 6.28987V5.21764C6.82129 4.58324 7.03324 3.97565 7.43949 3.49315C8.23432 2.56388 9.01148 1.95629 10.2744 1.64355Z" fill="url(#paint4_linear_3862_29841)"/>
<path id="Vector_19" d="M6.83008 6.28093V5.21764C6.83008 4.58324 7.04203 3.97565 7.44828 3.49315C8.23428 2.56388 9.01144 1.95629 10.2743 1.64355C8.41091 2.7962 7.35996 4.13648 6.83008 6.28093Z" fill="#D5E3F0"/>
</g>
<g id="Text input_5">
<path id="Vector_20" d="M21.2256 1.64551C23.089 2.79815 24.14 4.14737 24.6787 6.29182V5.2196C24.6787 4.5852 24.4667 3.9776 24.0605 3.4951C23.2745 2.56584 22.4885 1.95824 21.2256 1.64551Z" fill="url(#paint5_linear_3862_29841)"/>
<path id="Vector_21" d="M21.2256 1.64551C23.089 2.79815 24.14 4.14737 24.6787 6.29182V5.2196C24.6787 4.5852 24.4667 3.9776 24.0605 3.4951C23.2745 2.56584 22.4885 1.95824 21.2256 1.64551Z" fill="url(#paint6_linear_3862_29841)"/>
<path id="Vector_22" d="M24.6787 6.28206V5.21876C24.6787 4.58436 24.4667 3.97677 24.0605 3.49427C23.2745 2.55607 22.4885 1.94847 21.2256 1.63574C23.089 2.79732 24.14 4.1376 24.6787 6.28206Z" fill="#D5E3F0"/>
</g>
<g id="Rating">
<path id="Vector_23" d="M10.0702 47.5171C8.17143 47.0167 7.2088 46.1143 6.62593 44.7561C6.4758 44.363 6.34332 44.0056 6.22852 43.666L6.40514 43.7196C6.99685 43.9073 7.47375 44.3451 7.72103 44.9169C8.11844 45.8462 8.53352 46.2483 9.73459 46.8738C9.97304 46.9988 10.1055 47.258 10.0702 47.5171Z" fill="#D8394C"/>
</g>
<g id="Rating_2">
<path id="Vector_24" d="M21.5066 47.5161C23.4054 47.0157 24.368 46.1133 24.9509 44.7551C25.101 44.362 25.2335 44.0046 25.3483 43.665L25.1717 43.7186C24.58 43.9063 24.1031 44.3441 23.8558 44.916C23.4584 45.8452 23.0433 46.2473 21.8422 46.8728C21.6038 46.9979 21.4713 47.257 21.5066 47.5161Z" fill="#D8394C"/>
</g>
<path id="Vector_25" d="M16.2266 12.3485C18.8054 12.42 20.6424 12.7327 22.1702 13.3493C22.8326 13.6173 23.3448 14.1534 23.5921 14.8236L22.5235 20.3277C22.4616 20.6583 22.3998 20.9978 22.3468 21.3284C19.5649 20.7387 17.5337 20.4885 15.5996 20.4885C13.639 20.4885 11.6255 20.7476 9.12617 21.3284C9.07319 20.9978 9.0202 20.6583 8.94955 20.3277L7.88977 14.8236C8.13705 14.1534 8.64928 13.6173 9.31163 13.3493C10.8483 12.7327 12.6764 12.4289 15.2552 12.3485H16.2266ZM16.2266 12.1162H15.2552C12.7382 12.1877 10.8483 12.4826 9.23215 13.1259C8.47265 13.4297 7.90744 14.0552 7.66016 14.7968L8.73759 20.3724C8.81707 20.7834 8.88773 21.1944 8.94955 21.6054C11.5195 20.9978 13.5772 20.7208 15.6173 20.7208C17.7633 20.7208 19.8829 21.0336 22.5588 21.6054C22.6206 21.1944 22.6913 20.7834 22.7707 20.3724L23.8482 14.8057C23.5921 14.0641 23.0357 13.4386 22.2762 13.1348C20.6335 12.4826 18.7436 12.1877 16.2266 12.1162Z" fill="black"/>
<path id="Vector_26" d="M23.8315 14.8056L22.7541 20.3722C22.6746 20.7832 22.604 21.1942 22.5421 21.6053C17.3404 20.4794 14.2053 20.3633 8.94173 21.6053C8.87991 21.1942 8.80926 20.7832 8.72978 20.3722L7.65234 14.8056C7.90846 14.0639 8.46484 13.4385 9.22434 13.1347C10.8493 12.4824 12.7304 12.1965 15.2474 12.125H16.2188C18.7358 12.1965 20.6257 12.4913 22.2419 13.1436C23.019 13.4385 23.5754 14.0639 23.8315 14.8056Z" fill="#4B545A"/>
<g id="Vector_27">
<path d="M23.8315 14.8056L22.7541 20.3722C22.6746 20.7832 22.604 21.1942 22.5421 21.6053C17.3404 20.4794 14.2053 20.3633 8.94173 21.6053C8.87991 21.1942 8.80926 20.7832 8.72978 20.3722L7.65234 14.8056C7.90846 14.0639 8.46484 13.4385 9.22434 13.1347C10.8493 12.4824 12.7304 12.1965 15.2474 12.125H16.2188C18.7358 12.1965 20.6257 12.4913 22.2419 13.1436C23.019 13.4385 23.5754 14.0639 23.8315 14.8056Z" fill="#4388FC" fill-opacity="0.1"/>
<path d="M23.8315 14.8056L22.7541 20.3722C22.6746 20.7832 22.604 21.1942 22.5421 21.6053C17.3404 20.4794 14.2053 20.3633 8.94173 21.6053C8.87991 21.1942 8.80926 20.7832 8.72978 20.3722L7.65234 14.8056C7.90846 14.0639 8.46484 13.4385 9.22434 13.1347C10.8493 12.4824 12.7304 12.1965 15.2474 12.125H16.2188C18.7358 12.1965 20.6257 12.4913 22.2419 13.1436C23.019 13.4385 23.5754 14.0639 23.8315 14.8056Z" fill="url(#paint7_radial_3862_29841)" fill-opacity="0.77"/>
</g>
<path id="Vector_28" d="M23.927 14.2962C24.1831 12.9827 23.4854 11.6692 22.2579 11.1778C20.6329 10.5255 18.7518 10.2396 16.2348 10.1592H15.2634C12.7464 10.2307 10.8565 10.5255 9.24035 11.1689C8.01278 11.6603 7.3151 12.9738 7.57121 14.2873L7.66835 14.7966C7.92446 14.0549 8.48084 13.4295 9.24035 13.1257C10.8653 12.4734 12.7464 12.1875 15.2634 12.116H16.2348C18.7518 12.1875 20.6417 12.4823 22.2579 13.1346C23.0174 13.4384 23.5826 14.0639 23.8299 14.8055L23.927 14.2962Z" fill="#4B545A"/>
<path id="Vector_29" d="M20.5633 1.17037C20.5633 1.1793 20.528 1.19717 20.4309 1.19717L11.1579 1.19717C11.0607 1.19717 11.0254 1.17037 11.0254 1.17037C11.0254 1.16143 11.0431 1.10782 11.149 1.03634L11.2285 0.982728C11.6966 0.652125 12.041 0.410874 12.615 0.178558C13.1891 0.089206 13.7985 0.0355947 14.452 0.00878906L17.1279 0.00878906C17.7814 0.0355947 18.3908 0.089206 18.9648 0.178558C18.9648 0.178558 18.9648 0.178558 18.9737 0.178558C19.5477 0.410874 19.8921 0.652125 20.3602 0.982728L20.4397 1.03634C20.5457 1.10782 20.5633 1.16143 20.5633 1.17037Z" fill="#4B545A"/>
<path id="Rectangle" d="M8.55266 36.8135H23.0362C23.0362 36.8135 23.1531 37.8645 22.5505 39.0026C21.2258 41.5045 10.0098 41.3704 8.99423 39.0026C8.48623 37.8182 8.55266 36.8135 8.55266 36.8135Z" fill="#F2F2F2"/>
</g>
<defs>
<filter id="filter0_d_3862_29841" x="0.543866" y="0" width="30.4914" height="54.9123" filterUnits="userSpaceOnUse" color-interpolation-filters="sRGB">
<feFlood flood-opacity="0" result="BackgroundImageFix"/>
<feColorMatrix in="SourceAlpha" type="matrix" values="0 0 0 0 0 0 0 0 0 0 0 0 0 0 0 0 0 0 127 0" result="hardAlpha"/>
<feOffset dy="3.45613"/>
<feGaussianBlur stdDeviation="1.72807"/>
<feColorMatrix type="matrix" values="0 0 0 0 0 0 0 0 0 0 0 0 0 0 0 0 0 0 0.3 0"/>
<feBlend mode="normal" in2="BackgroundImageFix" result="effect1_dropShadow_3862_29841"/>
<feBlend mode="normal" in="SourceGraphic" in2="effect1_dropShadow_3862_29841" result="shape"/>
</filter>
<radialGradient id="paint0_radial_3862_29841" cx="0" cy="0" r="1" gradientUnits="userSpaceOnUse" gradientTransform="translate(16.1913 37.4386) rotate(90) scale(7.63961 24.9495)">
<stop stop-color="white" stop-opacity="0.8"/>
<stop offset="1" stop-color="white" stop-opacity="0.01"/>
</radialGradient>
<radialGradient id="paint1_radial_3862_29841" cx="0" cy="0" r="1" gradientUnits="userSpaceOnUse" gradientTransform="translate(7.63066 40.606) rotate(90.033) scale(26.1641 3.28667)">
<stop stop-color="white" stop-opacity="0.8"/>
<stop offset="1" stop-color="white" stop-opacity="0.01"/>
</radialGradient>
<radialGradient id="paint2_radial_3862_29841" cx="0" cy="0" r="1" gradientUnits="userSpaceOnUse" gradientTransform="translate(23.9843 40.606) rotate(90.0331) scale(26.1641 3.29305)">
<stop stop-color="white" stop-opacity="0.8"/>
<stop offset="1" stop-color="white" stop-opacity="0.01"/>
</radialGradient>
<linearGradient id="paint3_linear_3862_29841" x1="6.82643" y1="3.96192" x2="10.2785" y2="3.96192" gradientUnits="userSpaceOnUse">
<stop offset="0.1548" stop-color="#A1A1A1"/>
<stop offset="0.9205" stop-color="white"/>
</linearGradient>
<linearGradient id="paint4_linear_3862_29841" x1="6.82643" y1="3.96192" x2="10.2785" y2="3.96192" gradientUnits="userSpaceOnUse">
<stop stop-color="#333333"/>
<stop offset="0.1883"/>
<stop offset="0.3849" stop-color="#333333"/>
<stop offset="0.5983"/>
<stop offset="0.8033" stop-color="#333333"/>
<stop offset="1"/>
</linearGradient>
<linearGradient id="paint5_linear_3862_29841" x1="24.6796" y1="3.96388" x2="21.2275" y2="3.96388" gradientUnits="userSpaceOnUse">
<stop offset="0.1548" stop-color="#A1A1A1"/>
<stop offset="0.9205" stop-color="white"/>
</linearGradient>
<linearGradient id="paint6_linear_3862_29841" x1="24.6796" y1="3.96388" x2="21.2275" y2="3.96388" gradientUnits="userSpaceOnUse">
<stop stop-color="#333333"/>
<stop offset="0.1883"/>
<stop offset="0.3849" stop-color="#333333"/>
<stop offset="0.5983"/>
<stop offset="0.8033" stop-color="#333333"/>
<stop offset="1"/>
</linearGradient>
<radialGradient id="paint7_radial_3862_29841" cx="0" cy="0" r="1" gradientUnits="userSpaceOnUse" gradientTransform="translate(15.8588 22.3468) rotate(90.6464) scale(10.3627 25.5059)">
<stop stop-color="white" stop-opacity="0.8"/>
<stop offset="1" stop-color="white" stop-opacity="0.01"/>
</radialGradient>
</defs>
</svg>
