<svg width="92" height="64" viewBox="0 0 92 64" fill="none" xmlns="http://www.w3.org/2000/svg">
<path d="M1 -0.5L11.0355 9.53553C11.9732 10.4732 13.245 11 14.5711 11H60.9289C62.255 11 63.5268 11.5268 64.4645 12.4645L74.0355 22.0355C74.9732 22.9732 75.5 24.245 75.5 25.5711V47.4289C75.5 48.755 76.0268 50.0268 76.9645 50.9645L98.5 72.5M98.5 50L87.9645 39.4645C87.0268 38.5268 85.755 38 84.4289 38H67.5M35 21.5V3.74695C35 1.40143 36.9014 -0.5 39.247 -0.5V-0.5C43.0306 -0.5 44.9254 -5.07457 42.25 -7.75L35 -15" stroke="black" stroke-opacity="0.1" stroke-linecap="round" stroke-linejoin="round"/>
</svg>
